P3
4 4
255
255 1 1 255 0 0 255 0 0 255 0 0
255 5 2 255 0 0 255 0 0 255 0 0
255 1 2 255 3 4 255 5 6 255 7 8
255 8 7 255 6 5 255 4 3 255 2 1
