P3
4 4
255
254 1 1 254 1 0 254 0 0 255 1 0
255 4 2 255 2 2 254 2 2 254 2 2
254 2 2 254 2 6 254 6 6 254 6 10
254 10 6 254 6 6 254 6 2 254 2 2
