P3
4 4
255
254 1 1 255 0 0 255 0 0 255 0 0
254 5 2 255 0 0 255 0 0 255 0 0
254 0 2 255 3 4 255 5 6 255 7 8
255 9 6 255 6 5 255 4 3 255 2 1
