P3
4 4
255
254 0 0 255 0 0 255 0 0 254 0 0
255 0 0 254 0 0 254 0 0 254 0 0
254 0 0 255 0 0 255 0 0 254 0 0
255 0 0 254 0 0 254 0 0 255 0 0
