P3
4 4
255
254 1 1 255 0 0 255 0 0 254 0 0
255 5 2 254 0 0 254 0 0 254 0 0
254 1 2 255 3 4 255 5 6 254 7 8
255 8 7 254 6 5 254 4 3 255 2 1
