P3
4 4
255
255 1 1 255 0 0 255 0 0 255 0 0
255 0 0 255 0 0 255 0 0 255 0 0
255 0 0 255 0 0 255 0 0 255 0 0
255 0 0 255 0 0 255 0 0 255 0 0
